# xmcd
#
# Track frame offsets:
#	182
#	49195
#	63505
#	68050
#	96015
#	99620
#	129115
#	147690
#	156980
#	171012
#
# Disc length: 2669 seconds
#
# Revision: 2
# Processed by: cddbd v1.4b41PL2 Copyright (c) Steve Scherf et al.
# Submitted via: EZCDDA 4.3.2
#
DISCID=8b0a6b0a
DTITLE=Australia - Musique Aborigène
DYEAR=1900
DGENRE=
TTITLE0=Rain Dreaming Ceremony
TTITLE1=A re-singing of rain Dreaming Songs
TTITLE2=Rain-making Song
TTITLE3=Balgan Songs
TTITLE4=Djabi Song. The Windmill of Wallanie Plains
TTITLE5=Wongga Dance Songs
TTITLE6=Brolga Bird Clan Songs
TTITLE7=Women's Wu-ungka Songs
TTITLE8=Morning Star, Pigeon and Rain Songs
TTITLE9=Stingray, Dolphin, Curlew and Shark Songs
EXTD=
EXTT0=
EXTT1=
EXTT2=
EXTT3=
EXTT4=
EXTT5=
EXTT6=
EXTT7=
EXTT8=
EXTT9=
PLAYORDER=
